# xmcd
#
# Track frame offsets: 
#        225
#        14571
#        27168
#        42506
#        52278
#        69993
#        84399
#        104324
#        114825
#        130005
#        148612
#        162765
#
# Disc length: 2240 seconds
#
# Revision: 3
# Processed by: cddbd v1.5.1PL0 Copyright (c) Steve Scherf et al.
# Submitted via: ExactAudioCopy v0.95b1
#
DISCID=9d08bd0c
DTITLE=Bar-J Wranglers - Wyoming Wind
DYEAR=1996
DGENRE=Country
TTITLE0=Wyoming Wind
TTITLE1=The Old Chisholm Trail
TTITLE2=Cool Water
TTITLE3=Timber Trail
TTITLE4=The Cowboy Song
TTITLE5=Lulabelle
TTITLE6=Silver Spurs
TTITLE7=Whoopi Ti Yi Yo
TTITLE8=Pinin' for the Pines
TTITLE9=Fiddlin' Man
TTITLE10=A Father's Love
TTITLE11=A Wind in My Face
EXTD=
EXTT0=
EXTT1=
EXTT2=
EXTT3=
EXTT4=
EXTT5=
EXTT6=
EXTT7=
EXTT8=
EXTT9=
EXTT10=
EXTT11=
PLAYORDER=
